<svg width="76" height="76" viewBox="0 0 76 76" fill="none" xmlns="http://www.w3.org/2000/svg">
<path d="M72.4375 62.9375H71.25V49.875C71.2469 47.0415 70.1199 44.3249 68.1162 42.3213C66.1126 40.3177 63.396 39.1906 60.5625 39.1875H52.25V26.125C52.25 25.8101 52.1249 25.508 51.9022 25.2853C51.6795 25.0626 51.3774 24.9375 51.0625 24.9375H3.5625C3.24756 24.9375 2.94551 25.0626 2.72281 25.2853C2.50011 25.508 2.375 25.8101 2.375 26.125V64.125C2.375 64.4399 2.50011 64.742 2.72281 64.9647C2.94551 65.1874 3.24756 65.3125 3.5625 65.3125H4.75V66.5C4.75 67.4448 5.12533 68.351 5.79343 69.0191C6.46153 69.6872 7.36767 70.0625 8.3125 70.0625H14.0268C14.65 71.1453 15.5476 72.0448 16.6292 72.6702C17.7108 73.2956 18.9381 73.6249 20.1875 73.6249C21.4369 73.6249 22.6642 73.2956 23.7458 72.6702C24.8274 72.0448 25.725 71.1453 26.3482 70.0625H54.4017C55.025 71.1453 55.9226 72.0448 57.0042 72.6702C58.0858 73.2956 59.3131 73.6249 60.5625 73.6249C61.8119 73.6249 63.0392 73.2956 64.1208 72.6702C65.2024 72.0448 66.1 71.1453 66.7233 70.0625H70.0625C71.0073 70.0625 71.9135 69.6872 72.5816 69.0191C73.2497 68.351 73.625 67.4448 73.625 66.5V64.125C73.625 63.8101 73.4999 63.508 73.2772 63.2853C73.0545 63.0626 72.7524 62.9375 72.4375 62.9375ZM68.875 49.875V52.25H58.1875C57.8726 52.25 57.5705 52.1249 57.3478 51.9022C57.1251 51.6795 57 51.3774 57 51.0625V41.5625H60.5625C62.7663 41.565 64.8792 42.4416 66.4376 44C67.9959 45.5583 68.8725 47.6712 68.875 49.875ZM54.625 41.5625V51.0625C54.625 52.0073 55.0003 52.9135 55.6684 53.5816C56.3365 54.2497 57.2427 54.625 58.1875 54.625H68.875V62.9375H66.7233C66.1 61.8547 65.2024 60.9552 64.1208 60.3298C63.0392 59.7044 61.8119 59.3751 60.5625 59.3751C59.3131 59.3751 58.0858 59.7044 57.0042 60.3298C55.9226 60.9552 55.025 61.8547 54.4017 62.9375H52.25V41.5625H54.625ZM26.3482 62.9375C25.725 61.8547 24.8274 60.9552 23.7458 60.3298C22.6642 59.7044 21.4369 59.3751 20.1875 59.3751C18.9381 59.3751 17.7108 59.7044 16.6292 60.3298C15.5476 60.9552 14.65 61.8547 14.0268 62.9375H4.75V58.1875H49.875V62.9375H26.3482ZM4.75 27.3125H49.875V55.8125H4.75V27.3125ZM8.3125 67.6875C7.99756 67.6875 7.69551 67.5624 7.47281 67.3397C7.25011 67.117 7.125 66.8149 7.125 66.5V65.3125H13.1694C13.0269 66.0978 13.0269 66.9022 13.1694 67.6875H8.3125ZM20.1875 71.25C19.248 71.25 18.3297 70.9714 17.5485 70.4495C16.7674 69.9275 16.1586 69.1857 15.7991 68.3177C15.4396 67.4498 15.3455 66.4947 15.5288 65.5733C15.712 64.6519 16.1644 63.8055 16.8287 63.1412C17.493 62.4769 18.3394 62.0245 19.2608 61.8413C20.1822 61.658 21.1373 61.7521 22.0052 62.1116C22.8732 62.4711 23.615 63.0799 24.137 63.861C24.6589 64.6422 24.9375 65.5605 24.9375 66.5C24.9375 67.7598 24.4371 68.968 23.5463 69.8588C22.6555 70.7496 21.4473 71.25 20.1875 71.25ZM27.2056 67.6875C27.3481 66.9022 27.3481 66.0978 27.2056 65.3125H53.5444C53.4019 66.0978 53.4019 66.9022 53.5444 67.6875H27.2056ZM60.5625 71.25C59.623 71.25 58.7047 70.9714 57.9235 70.4495C57.1424 69.9275 56.5336 69.1857 56.1741 68.3177C55.8146 67.4498 55.7205 66.4947 55.9038 65.5733C56.087 64.6519 56.5394 63.8055 57.2037 63.1412C57.868 62.4769 58.7144 62.0245 59.6358 61.8413C60.5572 61.658 61.5123 61.7521 62.3802 62.1116C63.2482 62.4711 63.99 63.0799 64.512 63.861C65.0339 64.6422 65.3125 65.5605 65.3125 66.5C65.3125 67.7598 64.8121 68.968 63.9213 69.8588C63.0305 70.7496 61.8223 71.25 60.5625 71.25ZM71.25 66.5C71.25 66.8149 71.1249 67.117 70.9022 67.3397C70.6795 67.5624 70.3774 67.6875 70.0625 67.6875H67.5806C67.7231 66.9022 67.7231 66.0978 67.5806 65.3125H71.25V66.5Z" fill="#F46036"/>
<path d="M11.875 45.125C12.1899 45.125 12.492 44.9999 12.7147 44.7772C12.9374 44.5545 13.0625 44.2524 13.0625 43.9375V40.375H15.4375C15.7524 40.375 16.0545 40.2499 16.2772 40.0272C16.4999 39.8045 16.625 39.5024 16.625 39.1875C16.625 38.8726 16.4999 38.5705 16.2772 38.3478C16.0545 38.1251 15.7524 38 15.4375 38H13.0625V35.625H16.625C16.9399 35.625 17.242 35.4999 17.4647 35.2772C17.6874 35.0545 17.8125 34.7524 17.8125 34.4375C17.8125 34.1226 17.6874 33.8205 17.4647 33.5978C17.242 33.3751 16.9399 33.25 16.625 33.25H11.875C11.5601 33.25 11.258 33.3751 11.0353 33.5978C10.8126 33.8205 10.6875 34.1226 10.6875 34.4375V43.9375C10.6875 44.2524 10.8126 44.5545 11.0353 44.7772C11.258 44.9999 11.5601 45.125 11.875 45.125Z" fill="#F46036"/>
<path d="M20.1875 45.125C20.5024 45.125 20.8045 44.9999 21.0272 44.7772C21.2499 44.5545 21.375 44.2525 21.375 43.9375V41.1671L23.9875 44.65C24.1765 44.902 24.4578 45.0685 24.7696 45.1131C25.0813 45.1576 25.398 45.0765 25.65 44.8875C25.902 44.6985 26.0685 44.4172 26.1131 44.1054C26.1576 43.7937 26.0765 43.477 25.8875 43.225L23.617 40.1981C24.4303 39.9471 25.1265 39.4126 25.5789 38.6917C26.0314 37.9707 26.21 37.1114 26.0822 36.2699C25.9545 35.4284 25.529 34.6607 24.883 34.1065C24.2371 33.5523 23.4136 33.2483 22.5625 33.25H20.1875C19.8726 33.25 19.5705 33.3751 19.3478 33.5978C19.1251 33.8205 19 34.1226 19 34.4375V43.9375C19 44.2525 19.1251 44.5545 19.3478 44.7772C19.5705 44.9999 19.8726 45.125 20.1875 45.125ZM23.75 36.8125C23.75 37.1275 23.6249 37.4295 23.4022 37.6522C23.1795 37.8749 22.8774 38 22.5625 38H21.375V35.625H22.5625C22.8774 35.625 23.1795 35.7501 23.4022 35.9728C23.6249 36.1955 23.75 36.4976 23.75 36.8125Z" fill="#F46036"/>
<path d="M29.6875 45.125H34.4375C34.7524 45.125 35.0545 44.9999 35.2772 44.7772C35.4999 44.5545 35.625 44.2524 35.625 43.9375C35.625 43.6226 35.4999 43.3205 35.2772 43.0978C35.0545 42.8751 34.7524 42.75 34.4375 42.75H30.875V40.375H33.25C33.5649 40.375 33.867 40.2499 34.0897 40.0272C34.3124 39.8045 34.4375 39.5024 34.4375 39.1875C34.4375 38.8726 34.3124 38.5705 34.0897 38.3478C33.867 38.1251 33.5649 38 33.25 38H30.875V35.625H34.4375C34.7524 35.625 35.0545 35.4999 35.2772 35.2772C35.4999 35.0545 35.625 34.7524 35.625 34.4375C35.625 34.1226 35.4999 33.8205 35.2772 33.5978C35.0545 33.3751 34.7524 33.25 34.4375 33.25H29.6875C29.3726 33.25 29.0705 33.3751 28.8478 33.5978C28.6251 33.8205 28.5 34.1226 28.5 34.4375V43.9375C28.5 44.2524 28.6251 44.5545 28.8478 44.7772C29.0705 44.9999 29.3726 45.125 29.6875 45.125Z" fill="#F46036"/>
<path d="M38 45.125H42.75C43.0649 45.125 43.367 44.9999 43.5897 44.7772C43.8124 44.5545 43.9375 44.2524 43.9375 43.9375C43.9375 43.6226 43.8124 43.3205 43.5897 43.0978C43.367 42.8751 43.0649 42.75 42.75 42.75H39.1875V40.375H41.5625C41.8774 40.375 42.1795 40.2499 42.4022 40.0272C42.6249 39.8045 42.75 39.5024 42.75 39.1875C42.75 38.8726 42.6249 38.5705 42.4022 38.3478C42.1795 38.1251 41.8774 38 41.5625 38H39.1875V35.625H42.75C43.0649 35.625 43.367 35.4999 43.5897 35.2772C43.8124 35.0545 43.9375 34.7524 43.9375 34.4375C43.9375 34.1226 43.8124 33.8205 43.5897 33.5978C43.367 33.3751 43.0649 33.25 42.75 33.25H38C37.6851 33.25 37.383 33.3751 37.1603 33.5978C36.9376 33.8205 36.8125 34.1226 36.8125 34.4375V43.9375C36.8125 44.2524 36.9376 44.5545 37.1603 44.7772C37.383 44.9999 37.6851 45.125 38 45.125Z" fill="#F46036"/>
<path d="M46.3125 47.5H8.3125C7.99756 47.5 7.69551 47.6251 7.47281 47.8478C7.25011 48.0705 7.125 48.3726 7.125 48.6875C7.125 49.0024 7.25011 49.3045 7.47281 49.5272C7.69551 49.7499 7.99756 49.875 8.3125 49.875H46.3125C46.6274 49.875 46.9295 49.7499 47.1522 49.5272C47.3749 49.3045 47.5 49.0024 47.5 48.6875C47.5 48.3726 47.3749 48.0705 47.1522 47.8478C46.9295 47.6251 46.6274 47.5 46.3125 47.5Z" fill="#F46036"/>
</svg>
